<svg xmlns="http://www.w3.org/2000/svg" xmlns:xlink="http://www.w3.org/1999/xlink" width="110" zoomAndPan="magnify" viewBox="0 0 82.5 52.499999" height="70" preserveAspectRatio="xMidYMid meet" version="1.0"><defs><g/><clipPath id="667a353a9a"><path d="M 17 31 L 35.421875 31 L 35.421875 47.039062 L 17 47.039062 Z M 17 31 " clip-rule="nonzero"/></clipPath><clipPath id="0e5ee391f0"><path d="M 7.019531 20 L 14 20 L 14 31 L 7.019531 31 Z M 7.019531 20 " clip-rule="nonzero"/></clipPath></defs><path fill="#ffffff" d="M 18.132812 16.84375 C 17.863281 17.566406 17.558594 18.289062 17.324219 19.019531 C 15.953125 23.277344 15.832031 27.585938 16.914062 31.910156 C 17.558594 34.46875 18.972656 36.542969 21.164062 38.046875 C 24.347656 40.210938 28.066406 40.058594 31.070312 37.660156 C 31.199219 37.5625 31.320312 37.464844 31.476562 37.339844 C 31.132812 38.09375 30.074219 39.070312 28.980469 39.613281 C 26.042969 41.058594 23.195312 40.722656 20.488281 39.054688 C 17.820312 37.40625 16.207031 34.929688 15.554688 31.875 C 14.640625 27.601562 14.910156 23.40625 16.621094 19.347656 C 16.890625 18.691406 17.273438 18.074219 17.625 17.441406 C 17.757812 17.222656 17.925781 17.023438 18.074219 16.820312 C 18.097656 16.820312 18.113281 16.835938 18.132812 16.84375 Z M 18.132812 16.84375 " fill-opacity="1" fill-rule="nonzero"/><g clip-path="url(#667a353a9a)"><path fill="#ffffff" d="M 17.96875 47.015625 C 19.671875 46.515625 21.273438 46.105469 22.828125 45.570312 C 25.417969 44.699219 27.847656 43.527344 30.074219 41.9375 C 31.214844 41.113281 32.277344 40.203125 33.042969 39.007812 C 33.800781 37.832031 34.25 36.554688 34.046875 35.117188 C 33.835938 33.640625 32.78125 32.65625 31.296875 32.550781 C 29.796875 32.441406 28.539062 33.007812 27.367188 33.863281 C 27.105469 34.050781 26.859375 34.253906 26.558594 34.417969 C 26.625 34.304688 26.6875 34.171875 26.769531 34.074219 C 27.871094 32.714844 29.234375 31.800781 31.019531 31.695312 C 33.425781 31.546875 35.171875 33.148438 35.304688 35.578125 C 35.417969 37.824219 34.488281 39.636719 32.984375 41.195312 C 31.332031 42.914062 29.316406 44.085938 27.144531 45.019531 C 24.558594 46.128906 21.882812 46.875 19.0625 47.03125 C 18.734375 47.039062 18.402344 47.015625 17.96875 47.015625 Z M 17.96875 47.015625 " fill-opacity="1" fill-rule="nonzero"/></g><path fill="#ffffff" d="M 25.683594 17.558594 C 26.140625 18.371094 26.101562 19.175781 26.003906 19.96875 C 25.800781 21.609375 25.113281 23.097656 24.542969 24.613281 C 24.003906 26.015625 23.441406 27.421875 23.125 28.871094 C 22.617188 31.097656 23.15625 33.238281 24.226562 35.199219 C 25.121094 36.824219 26.925781 37.503906 28.996094 37.144531 C 29.234375 37.101562 29.460938 37.054688 29.707031 37.046875 C 28.859375 37.660156 27.894531 37.882812 26.867188 37.808594 C 24.886719 37.695312 23.574219 36.585938 22.730469 34.839844 C 21.335938 31.964844 21.246094 29.0625 22.578125 26.140625 C 23.195312 24.761719 23.929688 23.425781 24.535156 22.046875 C 24.96875 21.046875 25.285156 19.996094 25.585938 18.960938 C 25.71875 18.535156 25.652344 18.082031 25.683594 17.558594 Z M 25.683594 17.558594 " fill-opacity="1" fill-rule="nonzero"/><path fill="#ffffff" d="M 13.734375 31.441406 C 13.277344 31.589844 12.796875 31.710938 12.347656 31.890625 C 11.089844 32.386719 10.152344 33.195312 9.835938 34.59375 C 9.640625 35.4375 9.722656 36.257812 10.265625 36.914062 C 10.839844 37.613281 11.464844 38.292969 12.183594 38.824219 C 14.6875 40.671875 17.550781 41.699219 20.546875 42.363281 C 20.855469 42.429688 21.164062 42.511719 21.492188 42.574219 C 21.492188 42.625 21.492188 42.683594 21.492188 42.730469 C 20.800781 42.730469 20.097656 42.78125 19.402344 42.722656 C 16.574219 42.476562 13.921875 41.648438 11.589844 40.007812 C 10.796875 39.457031 10.078125 38.761719 9.476562 38.003906 C 7.460938 35.503906 9.027344 31.835938 12.257812 31.367188 C 12.746094 31.300781 13.246094 31.316406 13.726562 31.285156 C 13.734375 31.351562 13.734375 31.390625 13.734375 31.441406 Z M 13.734375 31.441406 " fill-opacity="1" fill-rule="nonzero"/><path fill="#ffffff" d="M 26.386719 14.660156 C 26.992188 14.5625 27.25 14.644531 27.332031 15.015625 C 27.4375 15.515625 27.25 15.777344 26.679688 15.964844 C 26.746094 16.121094 26.820312 16.277344 26.875 16.433594 C 25.238281 15.621094 23.652344 14.742188 21.777344 14.667969 C 19.917969 14.585938 18.277344 15.359375 16.628906 16.082031 C 16.597656 16.039062 16.574219 16 16.539062 15.964844 C 16.792969 15.664062 17.046875 15.367188 17.300781 15.0625 C 16.933594 14.621094 16.882812 14.144531 17.167969 13.867188 C 17.429688 13.621094 17.804688 13.75 18.367188 14.277344 C 18.125 13.503906 18.164062 13.109375 18.480469 12.980469 C 18.839844 12.839844 19.214844 13.085938 19.589844 13.675781 C 19.558594 13.5625 19.511719 13.429688 19.5 13.316406 C 19.46875 12.960938 19.46875 12.601562 19.894531 12.480469 C 20.300781 12.371094 20.691406 12.667969 20.757812 13.117188 C 20.765625 13.210938 20.800781 13.300781 20.839844 13.375 C 20.847656 13.390625 20.953125 13.355469 21.058594 13.339844 C 20.757812 12.921875 20.816406 12.527344 21.199219 12.265625 C 21.34375 12.167969 21.664062 12.207031 21.84375 12.296875 C 22.257812 12.535156 22.234375 12.921875 21.996094 13.339844 C 22.136719 13.355469 22.242188 13.382812 22.363281 13.40625 C 22.300781 12.660156 22.496094 12.101562 23.351562 12.445312 C 23.742188 12.601562 23.695312 13.144531 23.34375 13.609375 C 23.484375 13.660156 23.605469 13.710938 23.734375 13.757812 C 23.867188 13.101562 24.128906 12.839844 24.617188 12.914062 C 25.179688 13.003906 25.03125 13.472656 25.058594 13.757812 C 25.398438 13.726562 25.824219 13.570312 26.058594 13.71875 C 26.296875 13.855469 26.296875 14.332031 26.386719 14.660156 Z M 26.386719 14.660156 " fill-opacity="1" fill-rule="nonzero"/><g clip-path="url(#0e5ee391f0)"><path fill="#ffffff" d="M 10.660156 20.5625 C 10.445312 21.011719 10.226562 21.457031 10.015625 21.90625 C 9.253906 23.53125 8.503906 25.171875 8.382812 26.992188 C 8.34375 27.609375 8.449219 28.257812 8.601562 28.863281 C 8.78125 29.539062 9.199219 29.777344 9.867188 29.621094 C 11.171875 29.316406 12.128906 28.511719 12.753906 27.339844 C 12.84375 27.15625 12.8125 26.828125 12.707031 26.683594 C 12.625 26.582031 12.257812 26.59375 12.09375 26.691406 C 11.394531 27.09375 10.722656 27.542969 9.972656 28.027344 C 10.121094 27.804688 10.195312 27.578125 10.355469 27.429688 C 10.847656 26.9375 11.320312 26.417969 11.867188 26 C 12.308594 25.664062 12.835938 25.617188 13.316406 25.984375 C 13.773438 26.34375 13.929688 26.839844 13.816406 27.429688 C 13.496094 29.117188 11.320312 30.980469 9.613281 31 C 8.660156 31.015625 7.96875 30.578125 7.535156 29.726562 C 7.035156 28.734375 7.019531 27.675781 7.226562 26.617188 C 7.664062 24.320312 8.832031 22.40625 10.382812 20.707031 C 10.4375 20.644531 10.527344 20.59375 10.59375 20.542969 C 10.609375 20.527344 10.625 20.535156 10.660156 20.5625 Z M 10.660156 20.5625 " fill-opacity="1" fill-rule="nonzero"/></g><path fill="#ffffff" d="M 23.769531 9.007812 C 22.8125 9.550781 22.8125 9.550781 22.085938 8.875 C 21.621094 9.878906 21.042969 10.140625 20.179688 9.746094 C 19.574219 9.476562 19.347656 8.695312 19.640625 7.925781 C 19.859375 7.335938 20.609375 7.1875 21.523438 7.507812 C 21.941406 7.023438 22.308594 6.5625 22.714844 6.152344 C 22.929688 5.929688 23.214844 5.972656 23.464844 6.160156 C 23.964844 6.523438 24.265625 7.003906 24.347656 7.507812 C 24.902344 7.589844 25.449219 7.5625 25.90625 7.753906 C 26.117188 7.84375 26.222656 8.328125 26.289062 8.648438 C 26.425781 9.402344 26.027344 9.917969 25.292969 10.050781 C 24.4375 10.199219 23.972656 9.894531 23.769531 9.007812 Z M 23.769531 9.007812 " fill-opacity="1" fill-rule="nonzero"/><path fill="#ffffff" d="M 28.679688 14.480469 C 27 12.699219 24.96875 11.699219 22.535156 11.574219 C 20.144531 11.460938 17.894531 11.796875 16.164062 13.726562 C 16.125 13.691406 16.082031 13.667969 16.058594 13.628906 C 16.222656 13.292969 16.351562 12.929688 16.566406 12.625 C 17.40625 11.429688 18.605469 10.78125 19.984375 10.46875 C 22.203125 9.96875 24.339844 10.199219 26.304688 11.421875 C 27.167969 11.960938 27.894531 12.667969 28.402344 13.570312 C 28.546875 13.832031 28.65625 14.121094 28.785156 14.390625 C 28.753906 14.421875 28.71875 14.449219 28.679688 14.480469 Z M 28.679688 14.480469 " fill-opacity="1" fill-rule="nonzero"/><path fill="#ffffff" d="M 14.011719 24.269531 C 14.011719 23.902344 14.019531 23.53125 14.011719 23.160156 C 13.980469 22.21875 13.996094 21.265625 13.90625 20.332031 C 13.660156 17.851562 11.71875 16.546875 9.167969 17.195312 C 8.871094 17.277344 8.578125 17.351562 8.21875 17.359375 C 8.359375 17.222656 8.480469 17.066406 8.628906 16.941406 C 11.027344 14.949219 14.515625 16.320312 15.023438 19.453125 C 15.277344 21.046875 14.972656 22.570312 14.289062 24.023438 C 14.238281 24.121094 14.175781 24.210938 14.109375 24.3125 C 14.078125 24.292969 14.035156 24.285156 14.011719 24.269531 Z M 14.011719 24.269531 " fill-opacity="1" fill-rule="nonzero"/><path fill="#ffffff" d="M 34.054688 18.871094 C 33.320312 18.671875 32.699219 18.425781 32.046875 18.355469 C 29.578125 18.058594 27.902344 19.476562 27.625 22.09375 C 27.535156 22.914062 27.511719 23.746094 27.449219 24.671875 C 27.332031 24.523438 27.25 24.457031 27.210938 24.367188 C 26.550781 22.824219 26.371094 21.25 27.007812 19.660156 C 28.066406 17.023438 31.851562 16.367188 33.761719 18.46875 C 33.851562 18.574219 33.933594 18.707031 34.054688 18.871094 Z M 34.054688 18.871094 " fill-opacity="1" fill-rule="nonzero"/><path fill="#ffffff" d="M 27.277344 26.15625 C 29.332031 28.503906 31.984375 29.449219 34.992188 29.644531 C 33.425781 30.53125 31.828125 30.585938 30.230469 29.898438 C 28.621094 29.191406 27.585938 27.96875 27.277344 26.15625 Z M 27.277344 26.15625 " fill-opacity="1" fill-rule="nonzero"/><path fill="#ffffff" d="M 22.414062 15.605469 C 23.246094 16.210938 23.351562 17.617188 22.667969 18.304688 C 22.480469 18.492188 22.355469 18.484375 22.1875 18.289062 C 21.582031 17.558594 21.671875 16.292969 22.414062 15.605469 Z M 22.414062 15.605469 " fill-opacity="1" fill-rule="nonzero"/><g fill="#ffffff" fill-opacity="1"><g transform="translate(41.261675, 37.371351)"><g><path d="M 4.234375 -22.125 C 5.429688 -22.125 6.375 -21.765625 7.0625 -21.046875 C 7.75 -20.328125 8.09375 -19.320312 8.09375 -18.03125 L 8.09375 -4.09375 C 8.09375 -3.25 7.929688 -2.515625 7.609375 -1.890625 C 7.296875 -1.273438 6.851562 -0.804688 6.28125 -0.484375 C 5.707031 -0.160156 5.023438 0 4.234375 0 L 0.828125 0 L 0.828125 -22.125 Z M 5.765625 -18.171875 C 5.765625 -18.765625 5.625 -19.21875 5.34375 -19.53125 C 5.070312 -19.84375 4.703125 -20 4.234375 -20 L 3.125 -20 L 3.125 -2.125 L 4.234375 -2.125 C 4.703125 -2.125 5.070312 -2.28125 5.34375 -2.59375 C 5.625 -2.914062 5.765625 -3.375 5.765625 -3.96875 Z M 5.765625 -18.171875 "/></g></g></g><g fill="#ffffff" fill-opacity="1"><g transform="translate(50.044924, 37.371351)"><g><path d="M 6.3125 -2.125 L 6.3125 0 L 0.828125 0 L 0.828125 -22.125 L 6.203125 -22.125 L 6.203125 -20.03125 L 3.15625 -20.03125 L 3.15625 -12.453125 L 6.03125 -12.453125 L 6.03125 -10.34375 L 3.15625 -10.34375 L 3.15625 -2.125 Z M 6.3125 -2.125 "/></g></g></g><g fill="#ffffff" fill-opacity="1"><g transform="translate(56.726661, 37.371351)"><g><path d="M 0.15625 -22.125 L 2.453125 -22.125 L 4.34375 -3.640625 L 4.46875 -3.640625 L 6.359375 -22.125 L 8.625 -22.125 L 5.6875 0.03125 L 3.09375 0.03125 Z M 0.15625 -22.125 "/></g></g></g><g fill="#ffffff" fill-opacity="1"><g transform="translate(65.536859, 37.371351)"><g><path d="M 5.71875 -6.359375 L 3.09375 -6.359375 L 2.453125 0 L 0.1875 0 L 3.125 -22.15625 L 5.71875 -22.15625 L 8.65625 0 L 6.359375 0 Z M 5.5 -8.4375 L 4.46875 -18.484375 L 4.34375 -18.484375 L 3.3125 -8.4375 Z M 5.5 -8.4375 "/></g></g></g></svg>